<?xml version="1.0" encoding="UTF-8"?>
<svg width="64" height="64" viewBox="0 0 64 64" fill="none" xmlns="http://www.w3.org/2000/svg">
  <circle cx="32" cy="32" r="32" fill="#8F78D3"/>
  <path d="M18 18H24.5C27.5 18 30 19 31.5 21C33 23 33 25.5 31.5 27.5C30 29.5 27.5 30.5 24.5 30.5H22V46H18V18Z" fill="white"/>
  <path d="M22 26.5H24.5C25.3 26.5 26 26.2 26.5 25.5C27 24.8 27 24 26.5 23.5C26 22.8 25.3 22.5 24.5 22.5H22V26.5Z" fill="#8F78D3"/>
  <path d="M36 18H40V30.5L48 18H53L44 32L53 46H48L40 33.5V46H36V18Z" fill="white"/>
</svg>